<svg height="24" viewBox="0 0 24 24" width="24" xmlns="http://www.w3.org/2000/svg"><path d="m6 19.7439414c-1.74778856-.6177546-3-2.2846132-3-4.2439414v-7c0-2.48528137 2.01471863-4.5 4.5-4.5h.5v-.5c0-.82842712.67157288-1.5 1.5-1.5h5c.8284271 0 1.5.67157288 1.5 1.5v.5h.5c2.4852814 0 4.5 2.01471863 4.5 4.5v7c0 1.9593282-1.2522114 3.6261868-3 4.2439414v.7560586c0 .8284271-.6715729 1.5-1.5 1.5h-9c-.82842712 0-1.5-.6715729-1.5-1.5zm1 .2285942v.5274644c0 .2761424.22385763.5.5.5h9c.2761424 0 .5-.2238576.5-.5v-.5274644c-.1641669.0181477-.3309955.0274644-.5.0274644h-9c-.16900455 0-.33583307-.0093167-.5-.0274644zm2-15.9725356h6v-.5c0-.27614237-.2238576-.5-.5-.5h-5c-.27614237 0-.5.22385763-.5.5zm-1.5 1c-1.93299662 0-3.5 1.56700338-3.5 3.5v7c0 1.9329966 1.56700338 3.5 3.5 3.5h9c1.9329966 0 3.5-1.5670034 3.5-3.5v-7c0-1.93299662-1.5670034-3.5-3.5-3.5zm7 5h1c.2761424 0 .5.2238576.5.5v1c0 .2761424-.2238576.5-.5.5h-1c-.2761424 0-.5-.2238576-.5-.5v-1c0-.2761424.2238576-.5.5-.5zm-6 0h1c.27614237 0 .5.2238576.5.5v1c0 .2761424-.22385763.5-.5.5h-1c-.27614237 0-.5-.2238576-.5-.5v-1c0-.2761424.22385763-.5.5-.5zm.64644661 4.8535534c-.19526215-.1952622-.19526215-.5118446 0-.7071068.19526215-.1952621.51184463-.1952621.70710678 0 .57130321.5713032 1.27692871.8535534 2.14644661.8535534s1.5751434-.2822502 2.1464466-.8535534c.1952622-.1952621.5118446-.1952621.7071068 0 .1952621.1952622.1952621.5118446 0 .7071068-.7620302.7620302-1.7230713 1.1464466-2.8535534 1.1464466s-2.09152322-.3844164-2.85355339-1.1464466z"/></svg>